<svg width="58" height="59" viewBox="0 0 58 59" fill="none" xmlns="http://www.w3.org/2000/svg">
<path d="M29.6042 47.3901H16.3126C15.0307 47.3901 13.8013 46.8808 12.8949 45.9744C11.9885 45.068 11.4792 43.8386 11.4792 42.5567V19.5984H41.6876C42.9695 19.5984 44.1988 20.1076 45.1053 21.014C46.0117 21.9205 46.5209 23.1498 46.5209 24.4317V25.6401M32.6251 19.5984L30.3752 14.8666C29.9592 14.1043 29.3457 13.4682 28.5989 13.0251C27.8522 12.582 26.9998 12.3482 26.1315 12.3484H16.3126C15.0307 12.3484 13.8013 12.8576 12.8949 13.764C11.9885 14.6705 11.4792 15.8998 11.4792 17.1817V27.4526M41.0834 31.6817C41.0834 34.7026 38.6667 39.5359 35.6459 39.5359C38.6667 39.5359 41.0834 44.3692 41.0834 47.3901C41.0834 44.3692 43.5001 39.5359 46.5209 39.5359C43.5001 39.5359 41.0834 34.7026 41.0834 31.6817Z" stroke="#6A52FF" stroke-width="3.625" stroke-linecap="round" stroke-linejoin="round"/>
<path d="M35.646 39.5358C38.6668 39.5358 41.0835 34.7025 41.0835 31.6816C41.0835 34.7025 43.5002 39.5358 46.521 39.5358C43.5002 39.5358 41.0835 44.3691 41.0835 47.39C41.0835 44.3691 38.6668 39.5358 35.646 39.5358Z" stroke="#9745FF" stroke-width="3.625" stroke-linecap="round" stroke-linejoin="round"/>
</svg>
