<svg width="32" height="33" viewBox="0 0 32 33" fill="none" xmlns="http://www.w3.org/2000/svg">
<path d="M6.33325 9.11686C6.33325 7.6441 7.52716 6.4502 8.99992 6.4502H22.9999C24.4727 6.4502 25.6666 7.6441 25.6666 9.11686V19.1169C25.6666 20.5897 24.4727 21.7835 22.9999 21.7835H19.4999L15.9999 25.7835L12.4999 21.7835H8.99992C7.52716 21.7835 6.33325 20.5897 6.33325 19.1169V9.11686Z" stroke="#9745FF" stroke-width="2" stroke-linecap="round" stroke-linejoin="round"/>
<path d="M12.6666 14.7834C12.6666 15.1515 12.3681 15.45 11.9999 15.45C11.6317 15.45 11.3333 15.1515 11.3333 14.7834C11.3333 14.4152 11.6317 14.1167 11.9999 14.1167C12.3681 14.1167 12.6666 14.4152 12.6666 14.7834Z" stroke="white" stroke-width="1.33333" stroke-linecap="round" stroke-linejoin="round"/>
<path d="M16.6666 14.7834C16.6666 15.1515 16.3681 15.45 15.9999 15.45C15.6318 15.45 15.3333 15.1515 15.3333 14.7834C15.3333 14.4152 15.6318 14.1167 15.9999 14.1167C16.3681 14.1167 16.6666 14.4152 16.6666 14.7834Z" stroke="white" stroke-width="1.33333" stroke-linecap="round" stroke-linejoin="round"/>
<path d="M20.6666 14.7834C20.6666 15.1515 20.3681 15.45 19.9999 15.45C19.6318 15.45 19.3333 15.1515 19.3333 14.7834C19.3333 14.4152 19.6318 14.1167 19.9999 14.1167C20.3681 14.1167 20.6666 14.4152 20.6666 14.7834Z" stroke="white" stroke-width="1.33333" stroke-linecap="round" stroke-linejoin="round"/>
</svg>
