<svg width="58" height="58" viewBox="0 0 58 58" fill="none" xmlns="http://www.w3.org/2000/svg">
<path d="M24.1462 35.066C30.9008 35.066 36.8132 31.406 36.8132 23.2725C36.8132 15.1391 30.9008 11.4791 24.1462 11.4791C17.3917 11.4791 11.4792 15.1391 11.4792 23.2725C11.4792 26.2599 12.2769 28.6437 13.6209 30.4645C14.1084 31.1249 14.0057 32.6644 13.6161 33.3869C12.6836 35.1163 14.4454 37.0112 16.3604 36.5721C17.7938 36.2437 19.2973 35.799 20.613 35.2026C21.0948 34.9841 21.6267 34.8961 22.1522 34.9556C22.8051 35.0293 23.4715 35.066 24.1462 35.066Z" stroke="#6A52FF" stroke-width="3.625" stroke-linecap="round" stroke-linejoin="round"/>
<path d="M45.4541 24.2305C44.8221 23.4543 43.6803 23.3375 42.9043 23.9696C42.128 24.6017 42.0111 25.7434 42.6433 26.5196L45.4541 24.2305ZM26.5352 40.8282C25.7268 40.2378 24.5929 40.4142 24.0024 41.2224C23.4119 42.0307 23.5884 43.1646 24.3967 43.7553L26.5352 40.8282ZM48.2915 32.9392C48.2915 29.3829 47.2685 26.4585 45.4541 24.2305L42.6433 26.5196C43.8644 28.0191 44.6665 30.105 44.6665 32.9392H48.2915ZM45.7956 41.2076C47.3993 39.0353 48.2915 36.2614 48.2915 32.9392H44.6665C44.6665 35.592 43.9635 37.5858 42.8791 39.0548L45.7956 41.2076ZM36.597 46.5202C38.0632 47.1848 39.694 47.662 41.193 48.0057L42.0028 44.4723C40.635 44.1586 39.259 43.7468 38.0936 43.2185L36.597 46.5202ZM33.812 46.5453C34.552 46.5453 35.2864 46.5052 36.0098 46.4233L35.6023 42.8212C35.0199 42.8872 34.4215 42.9203 33.812 42.9203V46.5453ZM24.3967 43.7553C27.0432 45.6888 30.3961 46.5453 33.812 46.5453V42.9203C30.9652 42.9203 28.4171 42.2033 26.5352 40.8282L24.3967 43.7553ZM38.0936 43.2185C37.323 42.8693 36.4626 42.7241 35.6023 42.8212L36.0098 46.4233C36.2004 46.4018 36.4042 46.4327 36.597 46.5202L38.0936 43.2185ZM42.7469 43.914C42.7929 43.9991 42.7885 44.0426 42.7849 44.0658C42.7791 44.103 42.7554 44.1738 42.6819 44.2567C42.5239 44.4348 42.2655 44.5325 42.0028 44.4723L41.193 48.0057C42.8453 48.3844 44.4253 47.7541 45.3939 46.662C46.3862 45.5434 46.8164 43.8232 45.9377 42.1934L42.7469 43.914ZM42.8791 39.0548C42.2711 39.8787 42.1824 40.9331 42.1988 41.6129C42.2165 42.3449 42.3721 43.219 42.7469 43.914L45.9377 42.1934C45.9425 42.2028 45.9111 42.1412 45.878 41.9928C45.8475 41.8548 45.8267 41.6909 45.8229 41.5254C45.8188 41.3572 45.8328 41.2253 45.8507 41.1419C45.8714 41.0438 45.8794 41.0943 45.7956 41.2076L42.8791 39.0548Z" fill="#9745FF"/>
</svg>
