<svg width="58" height="59" viewBox="0 0 58 59" fill="none" xmlns="http://www.w3.org/2000/svg">
	<path d="M13.8959 28.9572C13.8959 27.6225 14.9779 26.5405 16.3125 26.5405H41.6875C43.0223 26.5405 44.1042 27.6225 44.1042 28.9572V42.2489C44.1042 44.9183 41.9403 47.0822 39.2709 47.0822H18.7292C16.0598 47.0822 13.8959 44.9183 13.8959 42.2489V28.9572Z" stroke="#6A52FF" stroke-width="3.6875" stroke-linecap="round" stroke-linejoin="round"/>
	<path d="M18.7294 25.9364V25.5562C18.7294 21.7832 18.5024 17.5777 21.1375 14.8775C22.6403 13.3376 25.0719 12.0405 29.0002 12.0405C32.9285 12.0405 35.3602 13.3376 36.8628 14.8775C39.498 17.5777 39.2711 21.7832 39.2711 25.5562V25.9364" stroke="#9745FF" stroke-width="3.6875" stroke-linecap="round" stroke-linejoin="round"/>
	</svg>
