<svg width="125" height="25" viewBox="0 0 125 25" fill="none" xmlns="http://www.w3.org/2000/svg">
<g clip-path="url(#clip0_13_153)">
<path d="M18.5013 0H9.24936C7.4194 6.89518e-08 5.63055 0.548719 4.10903 1.57676C2.5875 2.6048 1.40167 4.06599 0.701488 5.77552C0.00130829 7.48505 -0.181763 9.36614 0.175429 11.1809C0.53262 12.9956 1.41403 14.6625 2.70818 15.9707C4.00233 17.2789 5.6511 18.1697 7.44596 18.5303C9.24082 18.891 11.1011 18.7054 12.7917 17.9969C14.4822 17.2885 15.927 16.0891 16.9433 14.5503C17.9596 13.0116 18.5018 11.2027 18.5013 9.35233V0ZM9.24936 13.791C8.38043 13.7915 7.53088 13.5314 6.80818 13.0436C6.08548 12.5558 5.52211 11.8622 5.18935 11.0505C4.8566 10.2389 4.7694 9.34572 4.9388 8.48397C5.1082 7.62222 5.52658 6.83064 6.141 6.20937C6.75543 5.5881 7.5383 5.16507 8.39056 4.99378C9.24282 4.8225 10.1262 4.91067 10.9289 5.24713C11.7316 5.58359 12.4175 6.15323 12.9 6.88397C13.3824 7.61471 13.6397 8.47373 13.6392 9.35233C13.6378 10.5291 13.1749 11.6573 12.3519 12.4894C11.529 13.3216 10.4132 13.7896 9.24936 13.791Z" fill="#6545E7"/>
<path d="M27.7506 6.29272C25.2984 6.29272 22.9466 7.27736 21.2121 9.03015C19.4777 10.783 18.5026 13.1604 18.5013 15.64V24.9999C19.716 25.0003 20.9189 24.7586 22.0412 24.2887C23.1636 23.8188 24.1833 23.13 25.0423 22.2615C25.9012 21.3929 26.5825 20.3618 27.0472 19.227C27.5119 18.0922 27.751 16.8759 27.7506 15.6476H37C37.0003 14.4192 36.7613 13.2028 36.2967 12.0678C35.832 10.9329 35.1507 9.90158 34.2918 9.03286C33.4329 8.16415 32.4131 7.47503 31.2908 7.00487C30.1684 6.53471 28.9655 6.29272 27.7506 6.29272Z" fill="#FF4694"/>
</g>
<path d="M57.8977 10.9431C57.8977 12.212 57.6572 13.2916 57.1761 14.1817C56.6989 15.0719 56.0473 15.7518 55.2216 16.2215C54.3996 16.6874 53.4754 16.9204 52.4489 16.9204C51.4148 16.9204 50.4867 16.6855 49.6648 16.2158C48.8428 15.7461 48.1932 15.0662 47.7159 14.176C47.2386 13.2859 47 12.2082 47 10.9431C47 9.67415 47.2386 8.59461 47.7159 7.70446C48.1932 6.81431 48.8428 6.13627 49.6648 5.67037C50.4867 5.20067 51.4148 4.96582 52.4489 4.96582C53.4754 4.96582 54.3996 5.20067 55.2216 5.67037C56.0473 6.13627 56.6989 6.81431 57.1761 7.70446C57.6572 8.59461 57.8977 9.67415 57.8977 10.9431ZM55.4034 10.9431C55.4034 10.1211 55.2803 9.42794 55.0341 8.86355C54.7917 8.29915 54.4489 7.87112 54.0057 7.57946C53.5625 7.28779 53.0436 7.14196 52.4489 7.14196C51.8542 7.14196 51.3352 7.28779 50.892 7.57946C50.4489 7.87112 50.1042 8.29915 49.858 8.86355C49.6155 9.42794 49.4943 10.1211 49.4943 10.9431C49.4943 11.7651 49.6155 12.4582 49.858 13.0226C50.1042 13.587 50.4489 14.0151 50.892 14.3067C51.3352 14.5984 51.8542 14.7442 52.4489 14.7442C53.0436 14.7442 53.5625 14.5984 54.0057 14.3067C54.4489 14.0151 54.7917 13.587 55.0341 13.0226C55.2803 12.4582 55.4034 11.7651 55.4034 10.9431Z" fill="white"/>
<path d="M62.0952 11.7158V16.7613H59.6747V8.034H61.9815V9.57378H62.0838C62.277 9.0662 62.6009 8.66468 63.0554 8.36923C63.5099 8.06999 64.0611 7.92037 64.7088 7.92037C65.3149 7.92037 65.8433 8.05294 66.294 8.31809C66.7448 8.58324 67.0952 8.96203 67.3452 9.45446C67.5952 9.94309 67.7202 10.5264 67.7202 11.2045V16.7613H65.2997V11.6363C65.3035 11.1022 65.1671 10.6855 64.8906 10.3863C64.6141 10.0832 64.2334 9.93173 63.7486 9.93173C63.4228 9.93173 63.1349 10.0018 62.8849 10.142C62.6387 10.2821 62.4456 10.4867 62.3054 10.7556C62.169 11.0207 62.099 11.3408 62.0952 11.7158Z" fill="white"/>
<path d="M72.0483 5.12491V16.7613H69.6278V5.12491H72.0483Z" fill="white"/>
<path d="M75.4815 20.034C75.1747 20.034 74.8868 20.0094 74.6179 19.9601C74.3527 19.9147 74.133 19.856 73.9588 19.784L74.5043 17.9772C74.7884 18.0643 75.044 18.1117 75.2713 18.1192C75.5024 18.1268 75.7012 18.0738 75.8679 17.9601C76.0384 17.8465 76.1766 17.6533 76.2827 17.3806L76.4247 17.0113L73.294 8.034H75.8395L77.6463 14.4431H77.7372L79.5611 8.034H82.1236L78.7315 17.7045C78.5687 18.1742 78.3471 18.5832 78.0668 18.9317C77.7902 19.284 77.4399 19.5548 77.0156 19.7442C76.5914 19.9374 76.08 20.034 75.4815 20.034Z" fill="white"/>
<path d="M83.4077 16.7613V5.12491H87.9986C88.8812 5.12491 89.633 5.29347 90.2543 5.63059C90.8755 5.96393 91.349 6.42794 91.6747 7.02264C92.0043 7.61355 92.169 8.29537 92.169 9.06809C92.169 9.84082 92.0024 10.5226 91.669 11.1135C91.3357 11.7045 90.8527 12.1647 90.2202 12.4942C89.5914 12.8238 88.83 12.9885 87.9361 12.9885H85.0099V11.017H87.5383C88.0118 11.017 88.402 10.9355 88.7088 10.7726C89.0194 10.606 89.2505 10.3768 89.402 10.0851C89.5573 9.78968 89.6349 9.45067 89.6349 9.06809C89.6349 8.68173 89.5573 8.34461 89.402 8.05673C89.2505 7.76506 89.0194 7.53968 88.7088 7.38059C88.3982 7.21771 88.0043 7.13628 87.527 7.13628H85.8679V16.7613H83.4077Z" fill="white"/>
<path d="M95.9758 16.926C95.419 16.926 94.9228 16.8295 94.4872 16.6363C94.0516 16.4393 93.7069 16.1495 93.4531 15.767C93.2031 15.3806 93.0781 14.8995 93.0781 14.3238C93.0781 13.8389 93.1671 13.4317 93.3452 13.1022C93.5232 12.7726 93.7656 12.5075 94.0724 12.3067C94.3793 12.106 94.7277 11.9545 95.1179 11.8522C95.5118 11.7499 95.9247 11.6779 96.3565 11.6363C96.8641 11.5832 97.2732 11.534 97.5838 11.4885C97.8944 11.4393 98.1198 11.3673 98.2599 11.2726C98.4001 11.1779 98.4702 11.0378 98.4702 10.8522V10.8181C98.4702 10.4582 98.3565 10.1798 98.1293 9.98287C97.9058 9.7859 97.5876 9.68741 97.1747 9.68741C96.7391 9.68741 96.3925 9.784 96.1349 9.97718C95.8774 10.1666 95.7069 10.4052 95.6236 10.6931L93.3849 10.5113C93.4986 9.98097 93.7221 9.52264 94.0554 9.13628C94.3887 8.74612 94.8187 8.44688 95.3452 8.23855C95.8755 8.02643 96.4891 7.92037 97.1861 7.92037C97.6709 7.92037 98.1349 7.97718 98.5781 8.09082C99.0251 8.20446 99.4209 8.38059 99.7656 8.61923C100.114 8.85787 100.389 9.16468 100.589 9.53968C100.79 9.9109 100.891 10.356 100.891 10.8749V16.7613H98.5952V15.551H98.527C98.3868 15.8238 98.1993 16.0643 97.9645 16.2726C97.7296 16.4772 97.4474 16.6382 97.1179 16.7556C96.7884 16.8692 96.4077 16.926 95.9758 16.926ZM96.669 15.2556C97.0251 15.2556 97.3395 15.1855 97.6122 15.0454C97.8849 14.9014 98.099 14.7082 98.2543 14.4658C98.4096 14.2234 98.4872 13.9488 98.4872 13.642V12.7158C98.4115 12.7651 98.3073 12.8105 98.1747 12.8522C98.0459 12.8901 97.9001 12.926 97.7372 12.9601C97.5743 12.9904 97.4115 13.0189 97.2486 13.0454C97.0857 13.0681 96.938 13.0889 96.8054 13.1079C96.5213 13.1495 96.2732 13.2158 96.0611 13.3067C95.849 13.3976 95.6842 13.5207 95.5668 13.676C95.4493 13.8276 95.3906 14.017 95.3906 14.2442C95.3906 14.5738 95.5099 14.8257 95.7486 14.9999C95.991 15.1704 96.2978 15.2556 96.669 15.2556Z" fill="white"/>
<path d="M105.189 11.7158V16.7613H102.768V8.034H105.075V9.57378H105.178C105.371 9.0662 105.695 8.66468 106.149 8.36923C106.604 8.06999 107.155 7.92037 107.803 7.92037C108.409 7.92037 108.937 8.05294 109.388 8.31809C109.839 8.58324 110.189 8.96203 110.439 9.45446C110.689 9.94309 110.814 10.5264 110.814 11.2045V16.7613H108.393V11.6363C108.397 11.1022 108.261 10.6855 107.984 10.3863C107.708 10.0832 107.327 9.93173 106.842 9.93173C106.517 9.93173 106.229 10.0018 105.979 10.142C105.732 10.2821 105.539 10.4867 105.399 10.7556C105.263 11.0207 105.193 11.3408 105.189 11.7158Z" fill="white"/>
<path d="M116.699 16.9317C115.801 16.9317 115.028 16.7499 114.381 16.3863C113.737 16.0189 113.241 15.4999 112.892 14.8295C112.544 14.1552 112.369 13.3579 112.369 12.4374C112.369 11.5397 112.544 10.7518 112.892 10.0738C113.241 9.39574 113.731 8.86734 114.364 8.48855C115 8.10976 115.746 7.92037 116.602 7.92037C117.178 7.92037 117.714 8.01317 118.21 8.19878C118.71 8.38059 119.146 8.65521 119.517 9.02264C119.892 9.39006 120.184 9.85218 120.392 10.409C120.6 10.962 120.705 11.6098 120.705 12.3522V13.017H113.335V11.517H118.426C118.426 11.1685 118.35 10.8598 118.199 10.5908C118.047 10.3219 117.837 10.1117 117.568 9.96014C117.303 9.80484 116.994 9.72718 116.642 9.72718C116.275 9.72718 115.949 9.81241 115.665 9.98287C115.384 10.1495 115.165 10.3749 115.006 10.659C114.847 10.9393 114.765 11.2518 114.761 11.5965V13.0226C114.761 13.4545 114.841 13.8276 115 14.142C115.163 14.4564 115.392 14.6988 115.688 14.8692C115.983 15.0397 116.333 15.1249 116.739 15.1249C117.008 15.1249 117.254 15.087 117.477 15.0113C117.701 14.9355 117.892 14.8219 118.051 14.6704C118.21 14.5189 118.331 14.3332 118.415 14.1135L120.653 14.2613C120.54 14.7992 120.307 15.2689 119.955 15.6704C119.606 16.0681 119.155 16.3787 118.602 16.6022C118.053 16.8219 117.419 16.9317 116.699 16.9317Z" fill="white"/>
<path d="M124.705 5.12491V16.7613H122.284V5.12491H124.705Z" fill="white"/>
<defs>
<clipPath id="clip0_13_153">
<rect width="37" height="25" fill="white"/>
</clipPath>
</defs>
</svg>
