<svg width="34" height="35" viewBox="0 0 34 35" fill="none" xmlns="http://www.w3.org/2000/svg">
<path d="M16.2916 10.4644C16.2916 12.2248 14.8645 13.6519 13.1041 13.6519C11.3438 13.6519 9.91663 12.2248 9.91663 10.4644C9.91663 8.70395 11.3438 7.27686 13.1041 7.27686C14.8645 7.27686 16.2916 8.70395 16.2916 10.4644Z" stroke="#9745FF" stroke-width="2.125" stroke-linecap="round" stroke-linejoin="round"/>
<path d="M13.1042 14.3604C8.28754 14.3604 7.08337 16.8395 7.08337 20.7354H9.91671V24.9854C9.91671 26.5502 11.1852 27.8187 12.75 27.8187H13.4584C15.0232 27.8187 16.2917 26.5502 16.2917 24.9854V20.7354H19.125C19.125 16.8395 17.9209 14.3604 13.1042 14.3604Z" stroke="#9745FF" stroke-width="2.125" stroke-linecap="round" stroke-linejoin="round"/>
<path fill-rule="evenodd" clip-rule="evenodd" d="M23.0184 8.2131C22.3339 7.44659 21.1925 7.24039 20.3349 7.94229C19.4772 8.64419 19.3565 9.81771 20.03 10.6479L23.0184 13.4155L26.0069 10.6479C26.6804 9.81771 26.5744 8.63681 25.702 7.94229C24.8296 7.24778 23.703 7.44659 23.0184 8.2131Z" stroke="white" stroke-width="0.991667" stroke-linecap="round" stroke-linejoin="round"/>
</svg>
