<svg width="32" height="33" viewBox="0 0 32 33" fill="none" xmlns="http://www.w3.org/2000/svg">
<path d="M7.66671 6.9502H24.3334M7.66671 6.9502V18.2835C7.66671 18.9908 7.94766 19.669 8.44776 20.1691C8.94785 20.6692 9.62613 20.9502 10.3334 20.9502H13.3334M7.66671 6.9502H6.33337M24.3334 6.9502V18.2835C24.3334 18.9908 24.0524 19.669 23.5523 20.1691C23.0522 20.6692 22.374 20.9502 21.6667 20.9502H18.6667M24.3334 6.9502H25.6667M13.3334 20.9502L11.6667 26.2835M13.3334 20.9502H18.6667M18.6667 20.9502L20.3334 26.2835" stroke="#9745FF" stroke-width="2" stroke-linecap="round" stroke-linejoin="round"/>
<path d="M11.6666 16.9502L14.6666 13.6169L17.3333 16.9502L20.3333 10.9502" stroke="white" stroke-width="2" stroke-linecap="round" stroke-linejoin="round"/>
</svg>
