<svg width="58" height="59" viewBox="0 0 58 59" fill="none" xmlns="http://www.w3.org/2000/svg">
<path d="M25.3751 39.943H16.3126C15.0307 39.943 13.8013 39.4338 12.8949 38.5274C11.9885 37.621 11.4792 36.3916 11.4792 35.1097V16.9847C11.4792 15.7028 11.9885 14.4734 12.8949 13.567C13.8013 12.6606 15.0307 12.1514 16.3126 12.1514H41.6876C42.9695 12.1514 44.1988 12.6606 45.1053 13.567C46.0117 14.4734 46.5209 15.7028 46.5209 16.9847V35.1097C46.5209 36.3916 46.0117 37.621 45.1053 38.5274C44.1988 39.4338 42.9695 39.943 41.6876 39.943H32.6251M25.3751 39.943L21.1459 47.193M25.3751 39.943H32.6251M32.6251 39.943L36.8542 47.193M21.1459 30.2764V21.818M29.0001 30.2764V24.2347M36.8542 30.2764V26.6514" stroke="#6A52FF" stroke-width="3.625" stroke-linecap="round" stroke-linejoin="round"/>
<path d="M21.146 30.2762V21.8179M29.0002 30.2762V24.2345M36.8543 30.2762V26.6512" stroke="#9745FF" stroke-width="3.625" stroke-linecap="round" stroke-linejoin="round"/>
</svg>
