<svg width="30" height="31" viewBox="0 0 30 31" fill="none" xmlns="http://www.w3.org/2000/svg">
<path d="M5.9375 8.98535C5.9375 7.60464 7.05679 6.48535 8.4375 6.48535H21.5625C22.9432 6.48535 24.0625 7.60464 24.0625 8.98535V19.6104C24.0625 20.9911 22.9432 22.1104 21.5625 22.1104H8.4375C7.05679 22.1104 5.9375 20.9911 5.9375 19.6104V8.98535Z" stroke="#9745FF" stroke-width="1.875" stroke-linecap="round" stroke-linejoin="round"/>
<path d="M10 22.4229V24.6104" stroke="#9745FF" stroke-width="1.875" stroke-linecap="round" stroke-linejoin="round"/>
<path d="M20 22.4229V24.6104" stroke="#9745FF" stroke-width="1.875" stroke-linecap="round" stroke-linejoin="round"/>
<path d="M19.0625 14.2979C19.0625 16.5415 17.2436 18.3604 15 18.3604C12.7564 18.3604 10.9375 16.5415 10.9375 14.2979C10.9375 12.0542 12.7564 10.2354 15 10.2354C17.2436 10.2354 19.0625 12.0542 19.0625 14.2979Z" stroke="white" stroke-width="1.875" stroke-linecap="round" stroke-linejoin="round"/>
</svg>
